<svg id="visual" viewBox="0 0 1929 750" width="1929" height="750" xmlns="http://www.w3.org/2000/svg" xmlns:xlink="http://www.w3.org/1999/xlink" version="1.1"><rect x="0" y="0" width="1929" height="750" fill="#002B5B"></rect><path d="M0 356L46 358.7C92 361.3 184 366.7 275.8 361C367.7 355.3 459.3 338.7 551.2 315C643 291.3 735 260.7 826.8 256.2C918.7 251.7 1010.3 273.3 1102.2 277.7C1194 282 1286 269 1377.8 264C1469.7 259 1561.3 262 1653.2 253.5C1745 245 1837 225 1883 215L1929 205L1929 751L1883 751C1837 751 1745 751 1653.2 751C1561.3 751 1469.7 751 1377.8 751C1286 751 1194 751 1102.2 751C1010.3 751 918.7 751 826.8 751C735 751 643 751 551.2 751C459.3 751 367.7 751 275.8 751C184 751 92 751 46 751L0 751Z" fill="#0078aa"></path><path d="M0 279L46 277.7C92 276.3 184 273.7 275.8 269.5C367.7 265.3 459.3 259.7 551.2 264.3C643 269 735 284 826.8 296.5C918.7 309 1010.3 319 1102.2 318.8C1194 318.7 1286 308.3 1377.8 294.2C1469.7 280 1561.3 262 1653.2 266.2C1745 270.3 1837 296.7 1883 309.8L1929 323L1929 751L1883 751C1837 751 1745 751 1653.2 751C1561.3 751 1469.7 751 1377.8 751C1286 751 1194 751 1102.2 751C1010.3 751 918.7 751 826.8 751C735 751 643 751 551.2 751C459.3 751 367.7 751 275.8 751C184 751 92 751 46 751L0 751Z" fill="#0069ad"></path><path d="M0 478L46 475.2C92 472.3 184 466.7 275.8 457.3C367.7 448 459.3 435 551.2 423.5C643 412 735 402 826.8 402.2C918.7 402.3 1010.3 412.7 1102.2 417.8C1194 423 1286 423 1377.8 433.5C1469.7 444 1561.3 465 1653.2 479.7C1745 494.3 1837 502.7 1883 506.8L1929 511L1929 751L1883 751C1837 751 1745 751 1653.2 751C1561.3 751 1469.7 751 1377.8 751C1286 751 1194 751 1102.2 751C1010.3 751 918.7 751 826.8 751C735 751 643 751 551.2 751C459.3 751 367.7 751 275.8 751C184 751 92 751 46 751L0 751Z" fill="#0058ab"></path><path d="M0 559L46 542.5C92 526 184 493 275.8 498.7C367.7 504.3 459.3 548.7 551.2 565.8C643 583 735 573 826.8 567.7C918.7 562.3 1010.3 561.7 1102.2 561.5C1194 561.3 1286 561.7 1377.8 547.2C1469.7 532.7 1561.3 503.3 1653.2 490.7C1745 478 1837 482 1883 484L1929 486L1929 751L1883 751C1837 751 1745 751 1653.2 751C1561.3 751 1469.7 751 1377.8 751C1286 751 1194 751 1102.2 751C1010.3 751 918.7 751 826.8 751C735 751 643 751 551.2 751C459.3 751 367.7 751 275.8 751C184 751 92 751 46 751L0 751Z" fill="#0a45a5"></path><path d="M0 588L46 599C92 610 184 632 275.8 638.2C367.7 644.3 459.3 634.7 551.2 622.2C643 609.7 735 594.3 826.8 585.3C918.7 576.3 1010.3 573.7 1102.2 573.3C1194 573 1286 575 1377.8 582.3C1469.7 589.7 1561.3 602.3 1653.2 608.7C1745 615 1837 615 1883 615L1929 615L1929 751L1883 751C1837 751 1745 751 1653.2 751C1561.3 751 1469.7 751 1377.8 751C1286 751 1194 751 1102.2 751C1010.3 751 918.7 751 826.8 751C735 751 643 751 551.2 751C459.3 751 367.7 751 275.8 751C184 751 92 751 46 751L0 751Z" fill="#242f9b"></path></svg>